<svg width="26" height="22" viewBox="0 0 26 22" fill="none" xmlns="http://www.w3.org/2000/svg">
<path d="M0 1.57143C0 1.15466 0.165561 0.754961 0.460261 0.460261C0.754961 0.165561 1.15466 0 1.57143 0H23.5714C23.9882 0 24.3879 0.165561 24.6826 0.460261C24.9773 0.754961 25.1429 1.15466 25.1429 1.57143C25.1429 1.9882 24.9773 2.3879 24.6826 2.6826C24.3879 2.9773 23.9882 3.14286 23.5714 3.14286H1.57143C1.15466 3.14286 0.754961 2.9773 0.460261 2.6826C0.165561 2.3879 0 1.9882 0 1.57143Z" fill="#333333"/>
<path d="M0 20.4286C0 20.0118 0.165561 19.6121 0.460261 19.3174C0.754961 19.0227 1.15466 18.8572 1.57143 18.8572H23.5714C23.9882 18.8572 24.3879 19.0227 24.6826 19.3174C24.9773 19.6121 25.1429 20.0118 25.1429 20.4286C25.1429 20.8454 24.9773 21.2451 24.6826 21.5398C24.3879 21.8345 23.9882 22 23.5714 22H1.57143C1.15466 22 0.754961 21.8345 0.460261 21.5398C0.165561 21.2451 0 20.8454 0 20.4286Z" fill="#333333"/>
<path d="M1.57143 9.42856C1.15466 9.42856 0.754961 9.59412 0.460261 9.88882C0.165561 10.1835 0 10.5832 0 11C0 11.4168 0.165561 11.8165 0.460261 12.1112C0.754961 12.4059 1.15466 12.5714 1.57143 12.5714H14.1429C14.5596 12.5714 14.9593 12.4059 15.254 12.1112C15.5487 11.8165 15.7143 11.4168 15.7143 11C15.7143 10.5832 15.5487 10.1835 15.254 9.88882C14.9593 9.59412 14.5596 9.42856 14.1429 9.42856H1.57143Z" fill="#333333"/>
</svg>
